<mxfile host="65bd71144e">
    <diagram id="LKaKQfK8-kJvVLxzSaqW" name="PÃ¡gina-1">
        <mxGraphModel dx="743" dy="545" grid="1" gridSize="10" guides="1" tooltips="1" connect="1" arrows="1" fold="1" page="1" pageScale="1" pageWidth="1600" pageHeight="1200" background="#ffffff" math="0" shadow="0">
            <root>
                <mxCell id="0"/>
                <mxCell id="1" parent="0"/>
                <mxCell id="2" value="Propietario de contactos" style="shape=umlActor;verticalLabelPosition=bottom;verticalAlign=top;html=1;fillColor=#76608a;strokeColor=#432D57;fontColor=#000000;fontSize=14;" parent="1" vertex="1">
                    <mxGeometry x="110" y="65" width="30" height="60" as="geometry"/>
                </mxCell>
                <mxCell id="3" value="" style="endArrow=none;startArrow=none;endFill=0;startFill=0;endSize=8;html=1;verticalAlign=bottom;labelBackgroundColor=none;strokeWidth=3;fillColor=#76608a;strokeColor=#432D57;dashed=1;fontSize=14;" parent="1" edge="1">
                    <mxGeometry width="160" relative="1" as="geometry">
                        <mxPoint x="125" y="145" as="sourcePoint"/>
                        <mxPoint x="130" y="1065" as="targetPoint"/>
                    </mxGeometry>
                </mxCell>
                <mxCell id="4" value="VPrincipal" style="shape=umlLifeline;perimeter=lifelinePerimeter;whiteSpace=wrap;html=1;container=1;collapsible=0;recursiveResize=0;outlineConnect=0;fillColor=#008a00;strokeColor=#005700;fontColor=#ffffff;fontSize=14;" parent="1" vertex="1">
                    <mxGeometry x="360" y="160" width="100" height="230" as="geometry"/>
                </mxCell>
                <mxCell id="5" value="" style="html=1;points=[];perimeter=orthogonalPerimeter;fillColor=#008a00;strokeColor=#005700;fontColor=#ffffff;fontSize=14;" parent="4" vertex="1">
                    <mxGeometry x="45" y="80" width="10" height="120" as="geometry"/>
                </mxCell>
                <mxCell id="6" value="ControlGUI" style="shape=umlLifeline;perimeter=lifelinePerimeter;whiteSpace=wrap;html=1;container=1;collapsible=0;recursiveResize=0;outlineConnect=0;strokeColor=#3700CC;fillColor=#6a00ff;fontColor=#ffffff;fontSize=14;" parent="1" vertex="1">
                    <mxGeometry x="580" y="80" width="100" height="1040" as="geometry"/>
                </mxCell>
                <mxCell id="9" value="" style="html=1;points=[];perimeter=orthogonalPerimeter;fillColor=#6a00ff;strokeColor=#3700CC;fontColor=#ffffff;fontSize=14;" parent="6" vertex="1">
                    <mxGeometry x="45" y="70" width="10" height="950" as="geometry"/>
                </mxCell>
                <mxCell id="14" value="GestorContactos" style="shape=umlLifeline;perimeter=lifelinePerimeter;whiteSpace=wrap;html=1;container=1;collapsible=0;recursiveResize=0;outlineConnect=0;fillColor=#a20025;strokeColor=#6F0000;fontColor=#ffffff;fontSize=14;" parent="1" vertex="1">
                    <mxGeometry x="860" y="80" width="100" height="1040" as="geometry"/>
                </mxCell>
                <mxCell id="15" value="" style="html=1;points=[];perimeter=orthogonalPerimeter;fillColor=#a20025;strokeColor=#6F0000;fontColor=#ffffff;fontSize=14;" parent="14" vertex="1">
                    <mxGeometry x="45" y="70" width="10" height="950" as="geometry"/>
                </mxCell>
                <mxCell id="74" value="Editar" style="html=1;verticalAlign=bottom;labelBackgroundColor=none;endArrow=open;endFill=0;fontColor=#006600;strokeWidth=3;fillColor=#f0a30a;strokeColor=#BD7000;fontSize=14;" parent="1" target="5" edge="1">
                    <mxGeometry width="160" relative="1" as="geometry">
                        <mxPoint x="130" y="280" as="sourcePoint"/>
                        <mxPoint x="380" y="280" as="targetPoint"/>
                    </mxGeometry>
                </mxCell>
                <mxCell id="78" value="guardarButtonAction()" style="html=1;verticalAlign=bottom;labelBackgroundColor=none;endArrow=open;endFill=0;fontColor=#006600;strokeWidth=3;fillColor=#f0a30a;strokeColor=#BD7000;fontSize=14;" parent="1" edge="1">
                    <mxGeometry x="0.0732" width="160" relative="1" as="geometry">
                        <mxPoint x="420" y="600.21" as="sourcePoint"/>
                        <mxPoint x="625" y="599.71" as="targetPoint"/>
                        <Array as="points">
                            <mxPoint x="510" y="599.71"/>
                        </Array>
                        <mxPoint as="offset"/>
                    </mxGeometry>
                </mxCell>
                <mxCell id="8" value="Create" style="html=1;verticalAlign=bottom;labelBackgroundColor=none;endArrow=open;endFill=0;fontColor=#006600;strokeWidth=3;fillColor=#f0a30a;strokeColor=#BD7000;fontSize=14;" parent="1" source="9" edge="1">
                    <mxGeometry width="160" relative="1" as="geometry">
                        <mxPoint x="800" y="180" as="sourcePoint"/>
                        <mxPoint x="460" y="180" as="targetPoint"/>
                    </mxGeometry>
                </mxCell>
                <mxCell id="92" value="recuperarContacto()" style="html=1;verticalAlign=bottom;labelBackgroundColor=none;endArrow=open;endFill=0;fontColor=#006600;strokeWidth=3;fillColor=#f0a30a;strokeColor=#BD7000;exitX=0.95;exitY=0.341;exitDx=0;exitDy=0;exitPerimeter=0;fontSize=14;" parent="1" target="15" edge="1">
                    <mxGeometry width="160" relative="1" as="geometry">
                        <mxPoint x="640.3600000000001" y="279.5799999999999" as="sourcePoint"/>
                        <mxPoint x="1155.8600000000001" y="280" as="targetPoint"/>
                    </mxGeometry>
                </mxCell>
                <mxCell id="95" value="editarButtonAction()" style="html=1;verticalAlign=bottom;labelBackgroundColor=none;endArrow=open;endFill=0;fontColor=#006600;strokeWidth=3;fillColor=#f0a30a;strokeColor=#BD7000;fontSize=14;" parent="1" source="5" target="9" edge="1">
                    <mxGeometry width="160" relative="1" as="geometry">
                        <mxPoint x="430" y="279.9999999999998" as="sourcePoint"/>
                        <mxPoint x="730" y="279.9999999999998" as="targetPoint"/>
                        <Array as="points">
                            <mxPoint x="540" y="280"/>
                        </Array>
                    </mxGeometry>
                </mxCell>
                <mxCell id="96" value="analizadorSintactico(Contacto)" style="html=1;verticalAlign=bottom;labelBackgroundColor=none;endArrow=open;endFill=0;fontColor=#006600;strokeWidth=3;fillColor=#f0a30a;strokeColor=#BD7000;fontSize=14;" parent="1" source="9" edge="1">
                    <mxGeometry x="0.6044" y="12" width="160" relative="1" as="geometry">
                        <mxPoint x="660" y="600" as="sourcePoint"/>
                        <mxPoint x="1090" y="602" as="targetPoint"/>
                        <mxPoint as="offset"/>
                    </mxGeometry>
                </mxCell>
                <mxCell id="97" value="Contacto" style="html=1;verticalAlign=bottom;labelBackgroundColor=none;endArrow=open;endFill=0;fontColor=#006600;strokeWidth=3;fillColor=#f0a30a;strokeColor=#BD7000;dashed=1;entryX=0.948;entryY=0.502;entryDx=0;entryDy=0;entryPerimeter=0;fontSize=14;" parent="1" source="15" edge="1">
                    <mxGeometry width="160" relative="1" as="geometry">
                        <mxPoint x="845.8600000000001" y="341" as="sourcePoint"/>
                        <mxPoint x="640.3400000000001" y="340.76" as="targetPoint"/>
                    </mxGeometry>
                </mxCell>
                <mxCell id="102" value="Actualizar contacto" style="edgeStyle=orthogonalEdgeStyle;html=1;align=left;spacingLeft=2;endArrow=block;rounded=0;entryX=1;entryY=0;fillColor=#60a917;strokeColor=#2D7600;shadow=0;fontColor=#000000;labelBackgroundColor=#ffffff;fontSize=14;" parent="1" target="101" edge="1">
                    <mxGeometry relative="1" as="geometry">
                        <mxPoint x="410" y="550" as="sourcePoint"/>
                        <Array as="points">
                            <mxPoint x="440" y="550"/>
                            <mxPoint x="440" y="580"/>
                        </Array>
                    </mxGeometry>
                </mxCell>
                <mxCell id="103" value="VEditar" style="shape=umlLifeline;perimeter=lifelinePerimeter;whiteSpace=wrap;html=1;container=1;collapsible=0;recursiveResize=0;outlineConnect=0;fillColor=#008a00;strokeColor=#005700;fontColor=#ffffff;fontSize=14;" vertex="1" parent="1">
                    <mxGeometry x="360" y="430" width="100" height="430" as="geometry"/>
                </mxCell>
                <mxCell id="104" value="" style="html=1;points=[];perimeter=orthogonalPerimeter;fillColor=#008a00;strokeColor=#005700;fontColor=#ffffff;fontSize=14;" vertex="1" parent="103">
                    <mxGeometry x="45" y="60" width="10" height="350" as="geometry"/>
                </mxCell>
                <mxCell id="107" value="Contacto c" style="html=1;verticalAlign=bottom;labelBackgroundColor=none;endArrow=open;endFill=0;fontColor=#006600;strokeWidth=3;fillColor=#f0a30a;strokeColor=#BD7000;dashed=1;fontSize=14;" edge="1" parent="1">
                    <mxGeometry width="160" relative="1" as="geometry">
                        <mxPoint x="625" y="510" as="sourcePoint"/>
                        <mxPoint x="410" y="510" as="targetPoint"/>
                        <Array as="points">
                            <mxPoint x="570" y="510"/>
                        </Array>
                    </mxGeometry>
                </mxCell>
                <mxCell id="108" value="Create" style="html=1;verticalAlign=bottom;labelBackgroundColor=none;endArrow=open;endFill=0;fontColor=#006600;strokeWidth=3;fillColor=#f0a30a;strokeColor=#BD7000;fontSize=14;" edge="1" parent="1">
                    <mxGeometry width="160" relative="1" as="geometry">
                        <mxPoint x="625" y="450" as="sourcePoint"/>
                        <mxPoint x="460" y="450" as="targetPoint"/>
                    </mxGeometry>
                </mxCell>
                <mxCell id="110" value="Guardar" style="html=1;verticalAlign=bottom;labelBackgroundColor=none;endArrow=open;endFill=0;fontColor=#006600;strokeWidth=3;fillColor=#f0a30a;strokeColor=#BD7000;fontSize=14;" edge="1" parent="1">
                    <mxGeometry width="160" relative="1" as="geometry">
                        <mxPoint x="130" y="600" as="sourcePoint"/>
                        <mxPoint x="410" y="600" as="targetPoint"/>
                    </mxGeometry>
                </mxCell>
                <mxCell id="101" value="" style="html=1;points=[];perimeter=orthogonalPerimeter;fillColor=#008a00;strokeColor=#005700;shadow=0;fontColor=#ffffff;labelBackgroundColor=#ffffff;fontSize=14;" parent="1" vertex="1">
                    <mxGeometry x="410" y="580" width="10" height="40" as="geometry"/>
                </mxCell>
                <mxCell id="111" value="" style="shape=umlDestroy;strokeColor=#000000;fontSize=14;" vertex="1" parent="1">
                    <mxGeometry x="395" y="840" width="30" height="30" as="geometry"/>
                </mxCell>
                <mxCell id="109" value="" style="shape=umlDestroy;strokeColor=#000000;fontSize=14;" vertex="1" parent="1">
                    <mxGeometry x="395" y="380" width="30" height="30" as="geometry"/>
                </mxCell>
                <mxCell id="112" value="GestorAnÃ¡lisis" style="shape=umlLifeline;perimeter=lifelinePerimeter;whiteSpace=wrap;html=1;container=1;collapsible=0;recursiveResize=0;outlineConnect=0;fillColor=#a20025;strokeColor=#6F0000;fontColor=#ffffff;fontSize=14;" vertex="1" parent="1">
                    <mxGeometry x="1040" y="80" width="100" height="1040" as="geometry"/>
                </mxCell>
                <mxCell id="113" value="" style="html=1;points=[];perimeter=orthogonalPerimeter;fillColor=#a20025;strokeColor=#6F0000;fontColor=#ffffff;fontSize=14;" vertex="1" parent="112">
                    <mxGeometry x="45" y="70" width="10" height="950" as="geometry"/>
                </mxCell>
                <mxCell id="114" value="int respuestaAnalisis" style="html=1;verticalAlign=bottom;labelBackgroundColor=none;endArrow=open;endFill=0;fontColor=#006600;strokeWidth=3;fillColor=#f0a30a;strokeColor=#BD7000;fontSize=14;" edge="1" parent="1" target="6">
                    <mxGeometry x="0.4709" width="160" relative="1" as="geometry">
                        <mxPoint x="1085" y="640" as="sourcePoint"/>
                        <mxPoint x="920" y="640" as="targetPoint"/>
                        <mxPoint as="offset"/>
                    </mxGeometry>
                </mxCell>
                <mxCell id="115" value="guardarContacto(Contacto)" style="html=1;verticalAlign=bottom;labelBackgroundColor=none;endArrow=open;endFill=0;fontColor=#006600;strokeWidth=3;fillColor=#f0a30a;strokeColor=#BD7000;exitX=0.95;exitY=0.341;exitDx=0;exitDy=0;exitPerimeter=0;fontSize=14;" edge="1" parent="1" target="14">
                    <mxGeometry width="160" relative="1" as="geometry">
                        <mxPoint x="630.0000000000001" y="680" as="sourcePoint"/>
                        <mxPoint x="894.64" y="680" as="targetPoint"/>
                    </mxGeometry>
                </mxCell>
                <mxCell id="116" value="VPrincipal" style="shape=umlLifeline;perimeter=lifelinePerimeter;whiteSpace=wrap;html=1;container=1;collapsible=0;recursiveResize=0;outlineConnect=0;fillColor=#008a00;strokeColor=#005700;fontColor=#ffffff;fontSize=14;" vertex="1" parent="1">
                    <mxGeometry x="360" y="890" width="100" height="230" as="geometry"/>
                </mxCell>
                <mxCell id="117" value="" style="html=1;points=[];perimeter=orthogonalPerimeter;fillColor=#008a00;strokeColor=#005700;fontColor=#ffffff;fontSize=14;" vertex="1" parent="116">
                    <mxGeometry x="45" y="60" width="10" height="140" as="geometry"/>
                </mxCell>
                <mxCell id="119" value="Create" style="html=1;verticalAlign=bottom;labelBackgroundColor=none;endArrow=open;endFill=0;fontColor=#006600;strokeWidth=3;fillColor=#f0a30a;strokeColor=#BD7000;fontSize=14;" edge="1" parent="1">
                    <mxGeometry width="160" relative="1" as="geometry">
                        <mxPoint x="622.5" y="910" as="sourcePoint"/>
                        <mxPoint x="457.5" y="910" as="targetPoint"/>
                    </mxGeometry>
                </mxCell>
                <mxCell id="131" value="Alert.INFO" style="shape=umlLifeline;perimeter=lifelinePerimeter;whiteSpace=wrap;html=1;container=1;collapsible=0;recursiveResize=0;outlineConnect=0;fontColor=#ffffff;strokeColor=#005700;fillColor=#008A00;fontSize=14;" vertex="1" parent="1">
                    <mxGeometry x="450" y="690" width="100" height="130" as="geometry"/>
                </mxCell>
                <mxCell id="132" value="" style="html=1;points=[];perimeter=orthogonalPerimeter;strokeColor=#2D7600;fontColor=#ffffff;fillColor=#008A00;fontSize=14;" vertex="1" parent="131">
                    <mxGeometry x="45" y="55" width="10" height="60" as="geometry"/>
                </mxCell>
                <mxCell id="133" value="Create" style="html=1;verticalAlign=bottom;labelBackgroundColor=none;endArrow=open;endFill=0;fontColor=#006600;strokeWidth=3;fillColor=#60a917;strokeColor=#2D7600;fontSize=14;" edge="1" parent="1">
                    <mxGeometry width="160" relative="1" as="geometry">
                        <mxPoint x="620" y="710" as="sourcePoint"/>
                        <mxPoint x="550" y="710" as="targetPoint"/>
                    </mxGeometry>
                </mxCell>
                <mxCell id="137" value="" style="shape=umlDestroy;dashed=0;fillColor=#60a917;strokeColor=#2D7600;fontColor=#ffffff;fontSize=14;" vertex="1" parent="1">
                    <mxGeometry x="480" y="800" width="40" height="40" as="geometry"/>
                </mxCell>
                <mxCell id="139" value="OK" style="html=1;verticalAlign=bottom;labelBackgroundColor=none;endArrow=open;endFill=0;fontColor=#006600;strokeWidth=3;fillColor=#f0a30a;strokeColor=#BD7000;entryX=0.057;entryY=0.165;entryDx=0;entryDy=0;entryPerimeter=0;fontSize=14;" edge="1" parent="1" target="132">
                    <mxGeometry width="160" relative="1" as="geometry">
                        <mxPoint x="130" y="755" as="sourcePoint"/>
                        <mxPoint x="490" y="800" as="targetPoint"/>
                    </mxGeometry>
                </mxCell>
                <mxCell id="140" value="Visible (true)" style="html=1;verticalAlign=bottom;labelBackgroundColor=none;endArrow=open;endFill=0;fontColor=#006600;strokeWidth=3;fillColor=#f0a30a;strokeColor=#BD7000;fontSize=14;" edge="1" parent="1" target="4">
                    <mxGeometry width="160" relative="1" as="geometry">
                        <mxPoint x="625" y="240" as="sourcePoint"/>
                        <mxPoint x="550" y="240" as="targetPoint"/>
                    </mxGeometry>
                </mxCell>
                <mxCell id="141" value="Visible (true)" style="html=1;verticalAlign=bottom;labelBackgroundColor=none;endArrow=open;endFill=0;fontColor=#006600;strokeWidth=3;fillColor=#f0a30a;strokeColor=#BD7000;fontSize=14;" edge="1" parent="1">
                    <mxGeometry width="160" relative="1" as="geometry">
                        <mxPoint x="625.33" y="490" as="sourcePoint"/>
                        <mxPoint x="409.9966666666665" y="490" as="targetPoint"/>
                    </mxGeometry>
                </mxCell>
                <mxCell id="142" value="Visible (true)" style="html=1;verticalAlign=bottom;labelBackgroundColor=none;endArrow=open;endFill=0;fontColor=#006600;strokeWidth=3;fillColor=#f0a30a;strokeColor=#BD7000;fontSize=14;" edge="1" parent="1">
                    <mxGeometry width="160" relative="1" as="geometry">
                        <mxPoint x="625.33" y="950" as="sourcePoint"/>
                        <mxPoint x="409.9966666666665" y="950" as="targetPoint"/>
                    </mxGeometry>
                </mxCell>
            </root>
        </mxGraphModel>
    </diagram>
</mxfile>